<svg width="6" height="5" viewBox="0 0 6 5" fill="none" xmlns="http://www.w3.org/2000/svg">
<path d="M2.62326 4.07L0.225261 1.329C-0.0577387 1.0065 0.172261 0.5 0.601761 0.5H5.39776C5.49388 0.499918 5.58799 0.527544 5.66882 0.57957C5.74964 0.631597 5.81376 0.705819 5.85349 0.793347C5.89321 0.880875 5.90687 0.977999 5.89282 1.07309C5.87877 1.16818 5.83761 1.2572 5.77426 1.3295L3.37626 4.0695C3.32933 4.1232 3.27145 4.16625 3.20652 4.19574C3.14158 4.22523 3.07108 4.24049 2.99976 4.24049C2.92844 4.24049 2.85794 4.22523 2.79301 4.19574C2.72807 4.16625 2.67019 4.1232 2.62326 4.0695V4.07Z" fill="#9E9E9E"/>
</svg>
